<svg xmlns="http://www.w3.org/2000/svg" width="2446" height="790" viewBox="0 0 2446 790" version="1.1"><path d="M 2194.258 1.969 L 2190.017 3.895 2190.645 11.697 C 2190.991 15.989, 2191.611 19.950, 2192.024 20.500 C 2192.436 21.050, 2194.860 26.313, 2197.410 32.195 C 2199.961 38.077, 2203.387 45.590, 2205.024 48.889 C 2206.661 52.188, 2208 55.157, 2208 55.486 C 2208 55.814, 2209.401 59.102, 2211.113 62.792 C 2216.034 73.398, 2218.379 78.606, 2224.490 92.500 C 2227.634 99.650, 2231.713 108.650, 2233.553 112.500 C 2235.394 116.350, 2237.867 121.750, 2239.048 124.500 C 2241.308 129.760, 2245.801 139.760, 2248.933 146.500 C 2250.648 150.191, 2252.139 153.786, 2252.459 155 C 2252.531 155.275, 2253.529 157.300, 2254.677 159.500 C 2255.825 161.700, 2258.667 168, 2260.992 173.500 C 2263.318 179, 2265.566 183.950, 2265.988 184.500 C 2266.859 185.635, 2274.108 201.970, 2274.420 203.500 C 2274.533 204.050, 2276.228 207.650, 2278.188 211.500 C 2280.147 215.350, 2282.775 220.975, 2284.026 224 C 2286.102 229.017, 2287.636 232.457, 2294.502 247.500 C 2295.757 250.250, 2297.690 254.525, 2298.797 257 C 2299.905 259.475, 2302.203 264.569, 2303.905 268.320 C 2305.607 272.071, 2307.010 275.671, 2307.022 276.320 C 2307.034 276.969, 2307.924 278.625, 2309 280 C 2310.076 281.375, 2310.966 283.049, 2310.978 283.719 C 2310.990 284.390, 2311.856 286.640, 2312.901 288.719 C 2313.947 290.799, 2315.488 294.075, 2316.327 296 C 2320.663 305.959, 2323.448 312.086, 2326.149 317.609 C 2327.791 320.969, 2329.237 324.411, 2329.362 325.258 C 2329.486 326.105, 2330.049 327.406, 2330.613 328.149 C 2331.177 328.892, 2332.816 332.200, 2334.255 335.500 C 2335.695 338.800, 2337.877 343.750, 2339.104 346.500 C 2340.332 349.250, 2341.414 351.725, 2341.509 352 C 2341.603 352.275, 2343.135 355.650, 2344.912 359.500 C 2346.689 363.350, 2350.417 371.450, 2353.197 377.500 C 2355.976 383.550, 2359.094 390.330, 2360.125 392.566 C 2361.156 394.802, 2362 397.389, 2362 398.316 C 2362 399.242, 2362.450 400, 2363 400 C 2363.550 400, 2364.007 400.563, 2364.015 401.250 C 2364.068 405.517, 2365.764 405.071, 2380.842 396.823 C 2394.592 389.302, 2396.038 388.253, 2396.434 385.517 C 2397.059 381.213, 2405.066 156.557, 2405.030 144.364 L 2405 134.229 2302.630 67.114 C 2246.326 30.201, 2199.864 0.010, 2199.380 0.022 C 2198.896 0.034, 2196.591 0.910, 2194.258 1.969 M 2094.500 10.247 C 2064.250 11.329, 2039.322 12.382, 2039.105 12.586 C 2038.524 13.131, 2041.917 97.993, 2042.655 101.377 L 2043.282 104.254 2071.891 103.600 C 2087.626 103.241, 2102.540 102.705, 2105.033 102.410 L 2109.565 101.872 2111.889 109.186 C 2113.168 113.209, 2114.829 117.850, 2115.582 119.500 C 2116.335 121.150, 2118.946 128.125, 2121.385 135 C 2137.073 179.222, 2136.989 179, 2138.015 179 C 2139.958 179, 2139.972 174.829, 2138.042 170.593 C 2136.911 168.109, 2134.831 162.347, 2133.422 157.788 C 2128.574 142.111, 2117.794 112.794, 2116.034 110.500 C 2115.612 109.950, 2114.015 105.675, 2112.485 101 C 2110.954 96.325, 2109.207 92.154, 2108.601 91.732 C 2107.995 91.310, 2101.425 91.246, 2094 91.590 C 2067.009 92.842, 2053.334 88.249, 2046.903 75.771 C 2041.206 64.719, 2040.295 41.562, 2045.141 30.994 C 2049.412 21.679, 2055.409 17.106, 2067 14.322 C 2075.276 12.335, 2134.992 10.372, 2143.630 11.803 C 2158.592 14.282, 2167.768 21.598, 2176.270 37.826 C 2178.769 42.597, 2213.759 120.750, 2254.025 211.500 C 2321.783 364.213, 2334.317 392, 2335.441 392 C 2336.013 392, 2331.387 380.641, 2328.315 374.500 C 2326.939 371.750, 2324.088 365.450, 2321.980 360.500 C 2319.871 355.550, 2315.142 344.750, 2311.470 336.500 C 2307.799 328.250, 2302.577 316.355, 2299.867 310.066 C 2297.157 303.778, 2294.574 298.153, 2294.127 297.566 C 2293.679 296.980, 2291.171 291.325, 2288.552 285 C 2285.934 278.675, 2283.445 273.050, 2283.022 272.500 C 2282.599 271.950, 2280.093 266.325, 2277.453 260 C 2274.814 253.675, 2272.097 247.600, 2271.415 246.500 C 2270.733 245.400, 2268.064 239.325, 2265.482 233 C 2262.901 226.675, 2260.428 221.050, 2259.988 220.500 C 2259.547 219.950, 2257.524 215.450, 2255.492 210.500 C 2253.461 205.550, 2250.675 199.250, 2249.302 196.500 C 2247.930 193.750, 2245.230 187.675, 2243.302 183 C 2241.375 178.325, 2238.675 172.250, 2237.302 169.500 C 2235.930 166.750, 2233.230 160.675, 2231.302 156 C 2229.375 151.325, 2226.678 145.250, 2225.308 142.500 C 2223.938 139.750, 2220.563 132.100, 2217.808 125.500 C 2215.053 118.900, 2212.439 113.050, 2212 112.500 C 2211.561 111.950, 2208.861 105.875, 2206 99 C 2203.139 92.125, 2200.442 86.050, 2200.007 85.500 C 2199.571 84.950, 2196.508 78.200, 2193.201 70.500 C 2189.893 62.800, 2184.174 49.750, 2180.491 41.500 C 2176.809 33.250, 2171.966 22.337, 2169.730 17.250 L 2165.664 8 2157.582 8.140 C 2153.137 8.216, 2124.750 9.165, 2094.500 10.247 M 0 317.849 L 0 611.699 11.500 622.436 L 23 633.172 23 339.586 L 23 46 117.500 46 L 212 46 212 93 L 212 140 180 140 L 148 140 148 201 L 148 262 180 262 L 212 262 212 310.500 L 212 359 180 359 L 148 359 148 496.500 L 148 634 85.760 634 L 23.520 634 42 652.500 L 60.480 671 123.240 671 L 186 671 186 533.500 L 186 396 216.768 396 L 247.536 396 261.336 449.605 L 275.136 503.210 305.318 533.065 L 335.500 562.920 396.109 562.960 L 456.719 563 464.609 532.004 L 472.500 501.009 477.395 501.004 C 482.251 501, 482.386 501.090, 494.145 512.095 L 506 523.189 506 297.595 L 506 72 573.250 72.009 C 610.237 72.014, 646.758 72.469, 654.406 73.020 C 701.455 76.412, 717.204 89.465, 723.156 130 C 724.859 141.592, 724.830 227.236, 723.119 242.500 C 720.594 265.022, 715.387 279.475, 706.658 288.191 C 702.297 292.546, 689.488 300, 686.366 300 C 683.404 300, 685.360 301.637, 691.717 304.478 C 708.783 312.107, 719.841 329.429, 723.014 353.500 C 723.628 358.163, 724.324 395.395, 724.681 442.750 L 725.293 524 677.189 524 L 629.085 524 628.793 439.750 C 628.528 363.651, 628.339 355.145, 626.834 351.828 C 624.272 346.184, 621.112 344.669, 610.873 344.180 L 602 343.755 602 433.878 L 602 524 554.260 524 L 506.520 524 525 542.500 L 543.480 561 591.740 561 L 640 561 640 547.764 L 640 534.528 653.263 547.764 L 666.527 561 714.763 561 L 763 561 763 534.129 L 763 507.258 768.140 506.576 C 773.886 505.814, 773.110 505.335, 785.750 517.451 L 792 523.442 792 334.721 L 792 146 768 146 L 744 146 744 109 L 744 72 839.500 72 L 935 72 935 109 L 935 146 911.500 146 L 888 146 888 335 L 888 524 840.260 524 L 792.520 524 811 542.500 L 829.480 561 877.740 561 L 926 561 926 531 L 926 501 931.645 501 L 937.290 501 949.145 512.095 L 961 523.189 961 297.510 L 961 71.830 1037.750 72.264 C 1120.738 72.733, 1126.089 73.050, 1142.036 78.445 C 1151.515 81.652, 1156.594 84.820, 1162.832 91.416 C 1171.155 100.216, 1175.774 112.479, 1177.963 131.591 C 1179.313 143.379, 1179.292 227.658, 1177.935 241.576 C 1174.966 272.034, 1166.778 287.970, 1149.714 296.506 C 1145.874 298.428, 1142.117 300, 1141.366 300 C 1138.381 300, 1140.379 301.659, 1147.252 304.890 C 1157.334 309.628, 1165.392 317.879, 1170.801 329 C 1178.509 344.849, 1178.291 341.855, 1178.730 438.250 L 1179.121 524 1131.622 524 L 1084.124 524 1083.782 440.250 C 1083.411 349.192, 1083.522 350.933, 1077.851 346.726 C 1075.842 345.235, 1073.005 344.635, 1066.101 344.242 L 1057 343.723 1057 433.861 L 1057 524 1009.260 524 L 961.520 524 980 542.500 L 998.480 561 1046.740 561 L 1095 561 1095 547.764 L 1095 534.528 1108.263 547.764 L 1121.527 561 1169.263 561 L 1217 561 1217 539.826 L 1217 518.651 1219.500 521 L 1222 523.349 1222 297.674 L 1222 72 1296.500 72 L 1371 72 1371 108.500 L 1371 145 1344.500 145 L 1318 145 1318 191.500 L 1318 238 1344.500 238 L 1371 238 1371 275.500 L 1371 313 1344.500 313 L 1318 313 1318 380.500 L 1318 448 1344.500 448 L 1371 448 1371 486 L 1371 524 1296.760 524 L 1222.520 524 1241 542.500 L 1259.480 561 1334.240 561 L 1409 561 1409 527.313 L 1409 493.626 1411.750 496.113 C 1417.637 501.437, 1418.290 501.527, 1415.152 496.578 C 1411.038 490.091, 1408.332 481.610, 1406.514 469.500 C 1405.303 461.437, 1405.011 447.541, 1405.006 397.750 L 1405 336 1452.426 336 L 1499.852 336 1500.176 385.750 C 1500.489 433.878, 1500.569 435.647, 1502.605 440 C 1505.547 446.290, 1508.121 448.289, 1513.425 448.404 C 1519.252 448.530, 1522.961 445.727, 1525.340 439.396 C 1527.049 434.847, 1527.147 431.486, 1526.721 392 C 1526.411 363.237, 1525.879 348.279, 1525.077 345.723 C 1523.352 340.227, 1519.187 336.023, 1510.856 331.367 C 1506.810 329.105, 1491.575 320.633, 1477 312.540 C 1444.960 294.748, 1432.579 286.677, 1423.996 277.987 C 1416.489 270.385, 1411.999 262.578, 1409.083 252.057 C 1405.400 238.766, 1404.808 226.440, 1405.261 172.500 C 1405.629 128.658, 1405.933 120.447, 1407.426 114 C 1410.042 102.709, 1414.401 94.431, 1421.449 87.373 C 1436.594 72.209, 1453.465 69, 1518.039 69 C 1566.091 69, 1579.431 70.554, 1593.304 77.767 C 1601.996 82.286, 1609.821 90.809, 1615.093 101.500 C 1621.959 115.423, 1622.230 118.057, 1622.714 175.750 L 1623.144 227 1575.072 227 L 1527 227 1526.976 193.250 C 1526.963 174.688, 1526.543 157.735, 1526.043 155.577 C 1524.839 150.386, 1522.176 146.901, 1517.724 144.686 C 1514.177 142.922, 1513.956 142.926, 1509.623 144.843 C 1507.173 145.926, 1504.448 147.914, 1503.566 149.259 C 1500.930 153.283, 1499.788 167.786, 1500.209 191.890 C 1500.663 217.797, 1501.294 220.448, 1508.523 226.812 C 1510.884 228.890, 1521.295 235.256, 1531.658 240.959 C 1583.955 269.738, 1594.813 276.680, 1605.387 288.101 C 1612.082 295.332, 1616.966 304.219, 1619.392 313.585 C 1622.743 326.525, 1623.147 337.480, 1622.743 404.500 C 1622.385 463.789, 1622.163 471.212, 1620.557 477.500 C 1618.167 486.854, 1615.001 493.380, 1609.012 501.290 C 1600.022 513.167, 1588.291 519.297, 1569.459 521.961 C 1548.096 524.983, 1486.882 525.526, 1462.500 522.909 C 1450.524 521.624, 1439.159 518.475, 1433.290 514.817 C 1426.411 510.529, 1461.645 546.002, 1469.225 550.996 C 1475.894 555.389, 1486.496 558.512, 1499.500 559.912 C 1523.872 562.537, 1586.057 561.989, 1607.459 558.961 C 1626.291 556.297, 1638.022 550.167, 1647.012 538.290 C 1655.335 527.297, 1658.432 518.487, 1660.746 499.229 L 1661.500 492.957 1668.500 499.223 C 1673.059 503.304, 1674.366 504.170, 1672.248 501.707 C 1665.026 493.309, 1660.980 481.262, 1659.096 462.541 C 1658.440 456.020, 1658 428.459, 1658 393.826 L 1658 336 1705.957 336 L 1753.914 336 1754.207 386.750 C 1754.490 435.803, 1754.569 437.634, 1756.569 441.500 C 1762.017 452.036, 1775.957 450.300, 1779.081 438.698 C 1780.673 432.788, 1779.850 348.436, 1778.163 344.500 C 1776.024 339.509, 1770.986 335.124, 1761 329.561 C 1755.775 326.650, 1741.150 318.529, 1728.500 311.515 C 1698.472 294.865, 1685.111 285.981, 1676.717 277.083 C 1660.501 259.893, 1657.994 246.761, 1658.009 179.105 C 1658.017 139.353, 1658.926 121.929, 1661.533 111.500 C 1665.973 93.743, 1677.895 80.516, 1694.391 75.042 C 1707.438 70.713, 1718.254 69.782, 1761.429 69.268 C 1829.394 68.458, 1843.542 71.067, 1858.432 87.150 C 1874.673 104.692, 1876.975 117.170, 1876.991 187.750 L 1877 227 1828.500 227 L 1780 227 1780 191.157 C 1780 155.730, 1779.973 155.264, 1777.710 150.985 C 1774.649 145.196, 1769.432 142.372, 1764.689 143.938 C 1760.146 145.437, 1756.030 149.956, 1754.944 154.638 C 1754.451 156.762, 1754.037 171.124, 1754.024 186.554 L 1754 214.607 1756.624 219.874 C 1760.057 226.763, 1764.648 229.861, 1801.500 250.158 C 1848.307 275.938, 1859.874 284.827, 1867.956 301.222 C 1876.184 317.916, 1877.385 332.748, 1876.704 409.327 C 1876.296 455.208, 1875.910 467.057, 1874.595 474 C 1871.175 492.059, 1859.597 508.665, 1845.680 515.472 C 1831.435 522.439, 1815.004 524.225, 1764.500 524.292 C 1710.733 524.363, 1697.156 522.362, 1683 512.279 C 1681.075 510.908, 1688.500 518.735, 1699.500 529.673 C 1720.880 550.933, 1725.538 554.325, 1737.500 557.348 C 1750.089 560.529, 1763.183 561.341, 1801.500 561.316 C 1852.473 561.283, 1869.387 559.463, 1883.680 552.472 C 1897.597 545.665, 1909.175 529.059, 1912.595 511 C 1913.910 504.057, 1914.296 492.208, 1914.704 446.327 C 1915.386 369.555, 1914.197 354.983, 1905.866 338 C 1901.854 329.822, 1900.465 328.260, 1869.158 296.750 L 1836.620 264 1875.810 264 L 1915 264 1914.991 224.750 C 1914.981 180.911, 1913.981 162.157, 1911.040 150.657 C 1907.101 135.256, 1906.040 133.915, 1866.563 94.436 C 1827.705 55.577, 1826.452 54.568, 1812.622 51.031 C 1799.080 47.568, 1783.080 46.750, 1738.938 47.267 C 1695.215 47.779, 1684.489 48.696, 1671.391 53.042 C 1650.401 60.007, 1638.165 77.829, 1636.404 104 C 1636.090 108.675, 1635.629 113.141, 1635.381 113.925 C 1635.093 114.832, 1624.680 105.183, 1606.714 87.359 C 1582.285 63.124, 1577.561 58.890, 1571.500 55.799 C 1557.217 48.515, 1544.135 47, 1495.539 47 C 1430.386 47, 1413.643 50.172, 1398.413 65.402 C 1394.173 69.642, 1391.216 73.793, 1388.907 78.750 L 1385.556 85.943 1367.417 67.971 L 1349.278 50 1274.139 50 L 1199 50 1199 88.229 L 1199 126.458 1167.750 95.356 C 1149.229 76.923, 1134.558 63.142, 1131.733 61.522 C 1124.856 57.581, 1114.611 54.350, 1102.804 52.399 C 1093.915 50.930, 1081.894 50.637, 1015.250 50.264 L 938 49.831 938 62.083 L 938 74.335 925.590 62.168 L 913.180 50 817.090 50 L 721 50 721 75.035 L 721 100.070 718.750 98.901 C 717.513 98.258, 709.069 90.479, 699.988 81.616 C 682.666 64.710, 676.803 60.460, 665.335 56.496 C 649.602 51.058, 643.924 50.721, 560.250 50.263 L 483 49.840 483 72.420 L 483 95 467.789 95 L 452.578 95 424.964 67.500 L 397.350 40 336.327 40 L 275.304 40 269.447 62.868 L 263.590 85.737 257.414 85.241 L 251.238 84.745 220.820 54.373 L 190.402 24 95.201 24 L 0 24 0 317.849 M 298.506 63.981 C 298.160 65.070, 284.666 117.270, 268.518 179.981 L 239.159 294 268.518 408.019 C 284.666 470.730, 298.160 522.930, 298.506 524.019 C 299.123 525.964, 300.208 526, 358.500 526 C 416.792 526, 417.877 525.964, 418.494 524.019 C 418.840 522.930, 432.334 470.730, 448.482 408.019 L 477.841 294 448.482 179.981 C 432.334 117.270, 418.840 65.070, 418.494 63.981 C 417.877 62.036, 416.792 62, 358.500 62 C 300.208 62, 299.123 62.036, 298.506 63.981 M 2018 113 L 1967.500 113.500 1967.254 116 C 1967.119 117.375, 1963.617 172.621, 1959.472 238.769 C 1953.700 330.887, 1952.119 361.068, 1952.718 367.709 L 1953.500 376.380 1969.809 386.190 C 1978.779 391.586, 1986.541 396, 1987.059 396 C 1987.576 396, 1988 395.411, 1988 394.691 C 1988 393.971, 1989.506 390.934, 1991.347 387.941 C 2000.241 373.483, 2033.524 318.428, 2043.301 302 C 2049.357 291.825, 2055.308 281.925, 2056.524 280 C 2059.878 274.693, 2078.722 243.113, 2086.956 229 C 2090.967 222.125, 2095.392 214.710, 2096.790 212.522 C 2098.187 210.334, 2102.316 203.584, 2105.966 197.522 C 2112.555 186.577, 2112.600 186.451, 2112.458 179.500 C 2112.356 174.508, 2111.530 170.492, 2109.580 165.500 C 2108.076 161.650, 2105.942 156.025, 2104.838 153 C 2103.734 149.975, 2101.965 145.475, 2100.908 143 C 2099.851 140.525, 2098.854 137.600, 2098.694 136.500 C 2098.533 135.400, 2097.881 133.553, 2097.243 132.395 C 2096.075 130.272, 2089.939 113.909, 2089.979 113.022 C 2090.007 112.400, 2078.947 112.397, 2018 113 M 602 204.144 L 602 261.288 610.231 260.601 C 628.821 259.051, 629.478 256.851, 628.756 198.500 C 628.220 155.154, 627.959 153.228, 622.102 149.287 C 619.237 147.358, 617.396 147, 610.352 147 L 602 147 602 204.144 M 1057 204.144 L 1057 261.288 1065.113 260.611 C 1078.757 259.473, 1081.419 256.815, 1083.041 242.705 C 1084.163 232.947, 1084.197 184.306, 1083.093 168 C 1081.878 150.044, 1079.187 147, 1064.532 147 L 1057 147 1057 204.144 M 343.612 173.750 C 343.311 175.262, 339.865 201.440, 335.955 231.922 L 328.844 287.344 335.950 342.922 C 339.858 373.490, 343.304 399.738, 343.607 401.250 L 344.159 404 359 404 L 373.841 404 374.393 401.250 C 374.696 399.738, 378.142 373.490, 382.050 342.922 L 389.156 287.344 382.045 231.922 C 378.135 201.440, 374.689 175.262, 374.388 173.750 L 373.841 171 359 171 L 344.159 171 343.612 173.750 M 2122.582 203.852 C 2118.777 210.258, 2112.665 220.450, 2109 226.500 C 2105.336 232.550, 2099.036 243.125, 2095.001 250 C 2090.965 256.875, 2084.645 267.450, 2080.955 273.500 C 2077.265 279.550, 2073.519 285.934, 2072.631 287.686 C 2071.742 289.438, 2068.312 295.162, 2065.008 300.407 C 2061.703 305.652, 2059 310.180, 2059 310.469 C 2059 310.759, 2055.939 316.059, 2052.198 322.248 C 2048.457 328.437, 2041.395 340.250, 2036.503 348.500 C 2031.612 356.750, 2024.548 368.513, 2020.805 374.641 C 2017.062 380.768, 2014 386.052, 2014 386.382 C 2014 386.712, 2010.475 392.723, 2006.166 399.741 C 2001.857 406.758, 1993.684 420.375, 1988.004 430 C 1982.324 439.625, 1974.599 452.563, 1970.838 458.752 C 1967.077 464.941, 1964 470.242, 1964 470.533 C 1964 470.824, 1960.371 477.010, 1955.936 484.281 C 1947.287 498.459, 1946 500.687, 1946 501.486 C 1946 501.769, 1947.388 502, 1949.085 502 L 1952.171 502 1949.571 506.652 C 1948.141 509.211, 1947.172 511.505, 1947.418 511.751 C 1948.022 512.355, 2046.905 510.177, 2047.941 509.537 C 2048.390 509.259, 2052.035 503.737, 2056.040 497.266 C 2060.045 490.795, 2066.440 480.550, 2070.251 474.500 C 2091.552 440.688, 2135.324 370.672, 2142.493 358.943 C 2145.370 354.236, 2149.290 347.936, 2151.205 344.943 C 2153.120 341.949, 2158.062 334.100, 2162.188 327.500 C 2182.334 295.276, 2186.436 289.044, 2187.040 289.743 C 2187.400 290.159, 2189.975 295.900, 2192.762 302.500 C 2195.550 309.100, 2200.835 321.250, 2204.506 329.500 C 2208.178 337.750, 2213.444 349.900, 2216.208 356.500 C 2218.973 363.100, 2221.585 368.950, 2222.012 369.500 C 2222.439 370.050, 2224.909 375.675, 2227.500 382 C 2230.091 388.325, 2232.545 393.950, 2232.953 394.500 C 2233.361 395.050, 2235.846 400.675, 2238.474 407 C 2241.102 413.325, 2243.596 418.950, 2244.016 419.500 C 2244.436 420.050, 2246.891 425.673, 2249.471 431.995 C 2252.051 438.318, 2254.526 443.943, 2254.971 444.495 C 2255.416 445.048, 2257.891 450.673, 2260.471 456.995 C 2263.051 463.318, 2265.526 468.943, 2265.970 469.495 C 2266.415 470.048, 2269.026 475.900, 2271.773 482.500 C 2278.309 498.205, 2284.434 512.280, 2287.440 518.500 C 2288.769 521.250, 2290.612 525.413, 2291.536 527.750 C 2292.461 530.087, 2293.325 532, 2293.457 532 C 2293.779 532, 2367.609 506.849, 2381.500 502.008 C 2387.550 499.899, 2401.050 495.179, 2411.500 491.520 C 2421.950 487.860, 2433.988 483.726, 2438.250 482.333 C 2442.512 480.939, 2446 479.676, 2446 479.525 C 2446 479.375, 2445.316 477.314, 2444.481 474.946 C 2443.485 472.123, 2443.313 470.424, 2443.982 470.011 C 2444.910 469.437, 2440.758 455.104, 2438.040 449.500 C 2436.691 446.719, 2429.577 427.505, 2425.450 415.500 C 2423.560 410, 2421.561 404.600, 2421.009 403.500 C 2420.456 402.400, 2419.384 399.700, 2418.627 397.500 C 2417.742 394.928, 2416.677 393.548, 2415.644 393.636 C 2413.576 393.811, 2367.945 409.278, 2368.338 409.671 C 2368.501 409.834, 2374.222 408.572, 2381.052 406.866 C 2400.283 402.063, 2409.887 403.598, 2418.203 412.803 C 2429.621 425.441, 2435.762 446.967, 2431.778 460.384 C 2430.041 466.233, 2422.847 473.044, 2413.914 477.298 C 2406.357 480.896, 2331.393 506.901, 2320.516 509.697 C 2312.804 511.680, 2302.919 511.024, 2297.306 508.158 C 2291.726 505.309, 2286.623 499.912, 2282.028 492 C 2279.952 488.425, 2262.162 448.825, 2242.496 404 C 2222.829 359.175, 2204.524 318, 2201.817 312.500 C 2199.110 307, 2195.364 298.900, 2193.493 294.500 C 2191.622 290.100, 2189.050 284.402, 2187.778 281.837 L 2185.464 277.174 2177.482 289.730 C 2173.092 296.636, 2167.609 305.035, 2165.298 308.393 C 2162.987 311.752, 2139.137 349.526, 2112.298 392.336 C 2085.459 435.146, 2060.748 473.656, 2057.383 477.914 C 2050.514 486.609, 2041.754 493.105, 2033.651 495.511 C 2025.187 498.025, 2010.620 499.280, 1996.135 498.745 C 1977.935 498.073, 1971.468 495.609, 1967.405 487.800 C 1965.500 484.138, 1965.689 475.577, 1967.811 469.500 C 1968.770 466.750, 1986.020 436.825, 2006.142 403 C 2122.708 207.059, 2130.746 193.378, 2129.817 192.502 C 2129.643 192.338, 2126.387 197.445, 2122.582 203.852 M 2180.797 328.774 C 2179.988 329.723, 2177.383 333.875, 2175.007 338 C 2159.763 364.467, 2155.716 371.460, 2150.986 379.500 C 2148.074 384.450, 2144.524 390.582, 2143.096 393.127 C 2141.668 395.672, 2132.808 410.972, 2123.406 427.127 L 2106.312 456.500 2106.906 462.758 L 2107.500 469.016 2140.828 489.008 C 2159.158 500.004, 2174.508 509, 2174.938 509 C 2175.369 509, 2190.296 501.011, 2208.111 491.246 L 2240.500 473.492 2240.516 466.996 C 2240.532 460.349, 2237.412 451.663, 2223.097 418.500 C 2220.960 413.550, 2217.066 404.325, 2214.444 398 C 2211.822 391.675, 2207.300 381.425, 2204.395 375.223 C 2201.490 369.021, 2199.120 363.846, 2199.127 363.723 C 2199.135 363.600, 2197.714 360.350, 2195.970 356.500 C 2194.227 352.650, 2192.686 349.050, 2192.547 348.500 C 2192.408 347.950, 2190.428 343.554, 2188.147 338.732 C 2185.866 333.909, 2184 329.548, 2184 329.041 C 2184 327.225, 2182.241 327.078, 2180.797 328.774 M 326.609 591.992 C 272.713 598.797, 238.831 629.332, 232.952 676.397 C 229.036 707.748, 237.361 737.065, 255.888 757.165 C 277.013 780.085, 311.640 791.390, 355.414 789.659 C 377.416 788.789, 391.524 785.922, 413.750 777.804 L 425 773.696 425 750.848 L 425 728 422.153 728 C 420.360 728, 416.219 730.067, 410.963 733.584 C 399.721 741.109, 388.856 746.448, 378.282 749.645 C 370.752 751.921, 367.575 752.313, 356 752.389 C 345.751 752.457, 340.814 752.028, 335.500 750.608 C 305.986 742.723, 290.625 719.924, 292.305 686.500 C 293.516 662.430, 303.368 645.347, 321.532 635.824 C 347.490 622.214, 379.211 626.510, 411 647.939 C 416.206 651.448, 419.500 652.996, 421.768 652.997 L 425.037 653 424.768 629.759 L 424.500 606.517 414.942 602.920 C 403.020 598.433, 392.257 595.524, 380 593.477 C 368.918 591.626, 336.624 590.728, 326.609 591.992 M 552 591.607 C 518.099 595.691, 496.324 605.346, 478.360 624.258 C 467.010 636.206, 460.515 648.679, 456.364 666.500 C 453.583 678.437, 453.795 704.283, 456.772 716.217 C 460.871 732.647, 467.994 745.900, 478.837 757.268 C 493.558 772.703, 511.982 782.122, 537.447 787.234 C 553.480 790.452, 585.520 790.452, 601.553 787.234 C 645.211 778.471, 672.676 754.299, 682.243 716.217 C 684.096 708.841, 684.425 704.808, 684.379 690 C 684.330 674.405, 684.040 671.437, 681.715 662.732 C 672.015 626.415, 644.090 602.222, 602.337 593.962 C 594.319 592.376, 586.818 591.736, 573.500 591.501 C 563.600 591.327, 553.925 591.375, 552 591.607 M 1537.609 591.992 C 1483.713 598.797, 1449.831 629.332, 1443.952 676.397 C 1440.036 707.748, 1448.361 737.065, 1466.888 757.165 C 1488.013 780.085, 1522.640 791.390, 1566.414 789.659 C 1588.416 788.789, 1602.524 785.922, 1624.750 777.804 L 1636 773.696 1636 750.848 L 1636 728 1633.153 728 C 1631.360 728, 1627.219 730.067, 1621.963 733.584 C 1610.721 741.109, 1599.856 746.448, 1589.282 749.645 C 1581.752 751.921, 1578.575 752.313, 1567 752.389 C 1556.751 752.457, 1551.814 752.028, 1546.500 750.608 C 1516.986 742.723, 1501.625 719.924, 1503.305 686.500 C 1504.516 662.430, 1514.368 645.347, 1532.532 635.824 C 1558.490 622.214, 1590.211 626.510, 1622 647.939 C 1627.206 651.448, 1630.500 652.996, 1632.768 652.997 L 1636.037 653 1635.768 629.759 L 1635.500 606.517 1625.942 602.920 C 1614.020 598.433, 1603.257 595.524, 1591 593.477 C 1579.918 591.626, 1547.624 590.728, 1537.609 591.992 M 728 690.500 L 728 786 754.493 786 L 780.986 786 781.243 720.772 L 781.500 655.545 828.865 720.772 L 876.231 786 904.115 786 L 932 786 932 690.500 L 932 595 905.500 595 L 879 595 879 649.664 L 879 704.328 837.995 649.664 L 796.991 595 762.495 595 L 728 595 728 690.500 M 987 690.500 L 987 786 1013.493 786 L 1039.986 786 1040.243 720.772 L 1040.500 655.545 1087.865 720.772 L 1135.231 786 1163.115 786 L 1191 786 1191 690.500 L 1191 595 1164.500 595 L 1138 595 1138 649.664 L 1138 704.328 1096.995 649.664 L 1055.991 595 1021.495 595 L 987 595 987 690.500 M 1247 690.500 L 1247 786 1328 786 L 1409 786 1409 767.500 L 1409 749 1357 749 L 1305 749 1305 725.500 L 1305 702 1353.500 702 L 1402 702 1402 683.500 L 1402 665 1353.500 665 L 1305 665 1305 648.500 L 1305 632 1357 632 L 1409 632 1409 613.500 L 1409 595 1328 595 L 1247 595 1247 690.500 M 1656 613.500 L 1656 632 1691 632 L 1726 632 1726 709 L 1726 786 1755 786 L 1784 786 1784 709 L 1784 632 1819 632 L 1854 632 1854 613.500 L 1854 595 1755 595 L 1656 595 1656 613.500 M 1887 690.500 L 1887 786 1968 786 L 2049 786 2049 767.500 L 2049 749 1997 749 L 1945 749 1945 725.500 L 1945 702 1993.500 702 L 2042 702 2042 683.500 L 2042 665 1993.500 665 L 1945 665 1945 648.500 L 1945 632 1997 632 L 2049 632 2049 613.500 L 2049 595 1968 595 L 1887 595 1887 690.500 M 2096 690.419 L 2096 786 2143.250 785.991 C 2203.549 785.981, 2219.467 784.643, 2240.500 777.817 C 2275.147 766.574, 2300.837 738.812, 2306.466 706.533 C 2315.206 656.417, 2285.774 614.381, 2232.274 600.565 C 2215.564 596.250, 2207.479 595.726, 2150.750 595.274 L 2096 594.838 2096 690.419 M 559.500 627.649 C 536.267 632.487, 522.575 645.486, 516.472 668.500 C 513.958 677.981, 513.472 695.805, 515.423 707 C 518.595 725.195, 528.824 740.823, 541.900 747.449 C 549.338 751.218, 561.058 754, 569.500 754 C 577.942 754, 589.662 751.218, 597.100 747.449 C 610.168 740.827, 620.536 725.007, 623.611 707 C 625.519 695.822, 625.024 677.948, 622.545 668.500 C 616.933 647.118, 603.144 633.107, 583.303 628.626 C 576.712 627.137, 564.385 626.631, 559.500 627.649 M 2154 690.640 L 2154 750.281 2175.250 749.729 C 2192.260 749.287, 2198.065 748.764, 2204.342 747.106 C 2232.805 739.589, 2248.048 719.744, 2247.983 690.292 C 2247.910 657.474, 2227.907 636.268, 2193.026 632.030 C 2188.366 631.463, 2177.678 631, 2169.276 631 L 2154 631 2154 690.640" stroke="none" fill="#2d2d32" fill-rule="evenodd"/><path d="M 2093.756 12.083 C 2082.897 12.508, 2071.422 13.391, 2068.256 14.046 C 2056.233 16.532, 2049.514 21.458, 2045.141 30.994 C 2040.295 41.562, 2041.206 64.719, 2046.903 75.771 C 2053.334 88.249, 2067.009 92.842, 2094 91.590 C 2101.425 91.246, 2107.995 91.310, 2108.601 91.732 C 2109.207 92.154, 2110.954 96.325, 2112.485 101 C 2114.015 105.675, 2115.612 109.950, 2116.034 110.500 C 2117.794 112.794, 2128.574 142.111, 2133.422 157.788 C 2134.831 162.347, 2136.888 168.059, 2137.992 170.483 C 2140.532 176.059, 2140.527 176.140, 2137.354 179.563 C 2135.898 181.134, 2132.594 186.937, 2130.010 192.459 C 2125.679 201.719, 2107.183 233.156, 2006.142 403 C 1986.020 436.825, 1968.770 466.750, 1967.811 469.500 C 1965.689 475.577, 1965.500 484.138, 1967.405 487.800 C 1971.468 495.609, 1977.935 498.073, 1996.135 498.745 C 2010.620 499.280, 2025.187 498.025, 2033.651 495.511 C 2041.754 493.105, 2050.514 486.609, 2057.383 477.914 C 2060.748 473.656, 2085.459 435.146, 2112.298 392.336 C 2139.137 349.526, 2162.987 311.752, 2165.298 308.393 C 2167.609 305.035, 2173.092 296.636, 2177.482 289.730 L 2185.464 277.174 2187.778 281.837 C 2189.050 284.402, 2191.622 290.100, 2193.493 294.500 C 2195.364 298.900, 2199.110 307, 2201.817 312.500 C 2204.524 318, 2222.829 359.175, 2242.496 404 C 2262.162 448.825, 2279.952 488.425, 2282.028 492 C 2286.623 499.912, 2291.726 505.309, 2297.306 508.158 C 2302.919 511.024, 2312.804 511.680, 2320.516 509.697 C 2331.393 506.901, 2406.357 480.896, 2413.914 477.298 C 2422.847 473.044, 2430.041 466.233, 2431.778 460.384 C 2436.826 443.383, 2425.338 414.315, 2410.598 406.795 C 2403.631 403.241, 2395.761 403.286, 2380.213 406.969 C 2372.671 408.756, 2362.116 411.597, 2356.757 413.283 C 2351.399 414.969, 2346.856 416.157, 2346.663 415.924 C 2346.469 415.691, 2344.842 411.900, 2343.047 407.500 C 2341.252 403.100, 2338.307 397.025, 2336.503 394 C 2330.775 384.396, 2328.614 379.614, 2254.023 211.500 C 2213.758 120.750, 2178.769 42.597, 2176.270 37.826 C 2170.189 26.218, 2164.459 19.839, 2156.710 16.048 C 2145.863 10.742, 2139.012 10.311, 2093.756 12.083 M 23 340 L 23 634 85.500 634 L 148 634 148 496.500 L 148 359 180 359 L 212 359 212 310.500 L 212 262 180 262 L 148 262 148 201 L 148 140 180 140 L 212 140 212 93 L 212 46 117.500 46 L 23 46 23 340 M 298.506 63.981 C 298.160 65.070, 284.666 117.270, 268.518 179.981 L 239.159 294 268.518 408.019 C 284.666 470.730, 298.160 522.930, 298.506 524.019 C 299.123 525.964, 300.208 526, 358.500 526 C 416.792 526, 417.877 525.964, 418.494 524.019 C 418.840 522.930, 432.334 470.730, 448.482 408.019 L 477.841 294 448.482 179.981 C 432.334 117.270, 418.840 65.070, 418.494 63.981 C 417.877 62.036, 416.792 62, 358.500 62 C 300.208 62, 299.123 62.036, 298.506 63.981 M 1468.308 70.118 C 1454.352 71.267, 1441.436 74.246, 1433.888 78.056 C 1425.399 82.342, 1416.199 91.671, 1412.247 100 C 1406.037 113.090, 1405.733 116.240, 1405.261 172.500 C 1404.808 226.440, 1405.400 238.766, 1409.083 252.057 C 1411.999 262.578, 1416.489 270.385, 1423.996 277.987 C 1432.579 286.677, 1444.960 294.748, 1477 312.540 C 1491.575 320.633, 1506.810 329.105, 1510.856 331.367 C 1519.187 336.023, 1523.352 340.227, 1525.077 345.723 C 1525.879 348.279, 1526.411 363.237, 1526.721 392 C 1527.147 431.486, 1527.049 434.847, 1525.340 439.396 C 1522.961 445.727, 1519.252 448.530, 1513.425 448.404 C 1508.121 448.289, 1505.547 446.290, 1502.605 440 C 1500.569 435.647, 1500.489 433.878, 1500.176 385.750 L 1499.852 336 1452.426 336 L 1405 336 1405.006 397.750 C 1405.012 463.515, 1405.495 471.906, 1410.069 485.690 C 1413.918 497.290, 1423.491 509.112, 1434.015 515.261 C 1439.822 518.654, 1451.179 521.705, 1462.500 522.914 C 1486.961 525.525, 1548.114 524.981, 1569.459 521.961 C 1588.291 519.297, 1600.022 513.167, 1609.012 501.290 C 1615.001 493.380, 1618.167 486.854, 1620.557 477.500 C 1622.163 471.212, 1622.385 463.789, 1622.743 404.500 C 1623.147 337.480, 1622.743 326.525, 1619.392 313.585 C 1616.966 304.219, 1612.082 295.332, 1605.387 288.101 C 1594.813 276.680, 1583.955 269.738, 1531.658 240.959 C 1521.295 235.256, 1510.884 228.890, 1508.523 226.812 C 1501.294 220.448, 1500.663 217.797, 1500.209 191.890 C 1499.788 167.786, 1500.930 153.283, 1503.566 149.259 C 1504.448 147.914, 1507.173 145.926, 1509.623 144.843 C 1513.956 142.926, 1514.177 142.922, 1517.724 144.686 C 1522.176 146.901, 1524.839 150.386, 1526.043 155.577 C 1526.543 157.735, 1526.963 174.688, 1526.976 193.250 L 1527 227 1575.072 227 L 1623.144 227 1622.714 175.750 C 1622.230 118.057, 1621.959 115.423, 1615.093 101.500 C 1605.163 81.363, 1591.101 72.847, 1563.144 70.040 C 1551.101 68.831, 1483.259 68.886, 1468.308 70.118 M 1722.029 70.115 C 1701.208 71.963, 1689.633 75.418, 1679.995 82.663 C 1669.503 90.550, 1663.465 101.077, 1660.301 117 C 1658.311 127.010, 1657.287 207.578, 1658.886 228.330 C 1662.028 269.116, 1670.680 279.455, 1728.500 311.515 C 1741.150 318.529, 1755.775 326.650, 1761 329.561 C 1770.986 335.124, 1776.024 339.509, 1778.163 344.500 C 1779.850 348.436, 1780.673 432.788, 1779.081 438.698 C 1775.957 450.300, 1762.017 452.036, 1756.569 441.500 C 1754.569 437.634, 1754.490 435.803, 1754.207 386.750 L 1753.914 336 1705.957 336 L 1658 336 1658 393.826 C 1658 453.482, 1658.652 467.410, 1662.071 480.779 C 1667.074 500.340, 1681.954 515.661, 1700.500 520.348 C 1713.135 523.541, 1726.144 524.342, 1764.500 524.292 C 1815.004 524.225, 1831.435 522.439, 1845.680 515.472 C 1859.597 508.665, 1871.175 492.059, 1874.595 474 C 1875.910 467.057, 1876.296 455.208, 1876.704 409.327 C 1877.385 332.748, 1876.184 317.916, 1867.956 301.222 C 1859.874 284.827, 1848.307 275.938, 1801.500 250.158 C 1764.648 229.861, 1760.057 226.763, 1756.624 219.874 L 1754 214.607 1754.024 186.554 C 1754.037 171.124, 1754.451 156.762, 1754.944 154.638 C 1756.030 149.956, 1760.146 145.437, 1764.689 143.938 C 1769.432 142.372, 1774.649 145.196, 1777.710 150.985 C 1779.973 155.264, 1780 155.730, 1780 191.157 L 1780 227 1828.500 227 L 1877 227 1876.991 187.750 C 1876.975 116.987, 1874.694 104.714, 1858.259 86.963 C 1848.315 76.222, 1838.618 72.328, 1816.144 70.050 C 1804.124 68.831, 1735.966 68.879, 1722.029 70.115 M 506 298 L 506 524 554 524 L 602 524 602 433.878 L 602 343.755 610.873 344.180 C 621.112 344.669, 624.272 346.184, 626.834 351.828 C 628.339 355.145, 628.528 363.651, 628.793 439.750 L 629.085 524 677.189 524 L 725.293 524 724.681 442.750 C 724.324 395.395, 723.628 358.163, 723.014 353.500 C 719.841 329.429, 708.783 312.107, 691.717 304.478 C 685.360 301.637, 683.404 300, 686.366 300 C 687.117 300, 690.933 298.398, 694.846 296.441 C 711.916 287.901, 719.692 273.065, 723.119 242.500 C 724.830 227.236, 724.859 141.592, 723.156 130 C 717.204 89.465, 701.455 76.412, 654.406 73.020 C 646.758 72.469, 610.237 72.014, 573.250 72.009 L 506 72 506 298 M 744 109 L 744 146 768 146 L 792 146 792 335 L 792 524 840 524 L 888 524 888 335 L 888 146 911.500 146 L 935 146 935 109 L 935 72 839.500 72 L 744 72 744 109 M 961 297.915 L 961 524 1009 524 L 1057 524 1057 433.861 L 1057 343.723 1066.101 344.242 C 1073.005 344.635, 1075.842 345.235, 1077.851 346.726 C 1083.522 350.933, 1083.411 349.192, 1083.782 440.250 L 1084.124 524 1131.622 524 L 1179.121 524 1178.730 438.250 C 1178.291 341.855, 1178.509 344.849, 1170.801 329 C 1165.392 317.879, 1157.334 309.628, 1147.252 304.890 C 1140.379 301.659, 1138.381 300, 1141.366 300 C 1142.117 300, 1145.874 298.428, 1149.714 296.506 C 1166.778 287.970, 1174.966 272.034, 1177.935 241.576 C 1179.292 227.658, 1179.313 143.379, 1177.963 131.591 C 1175.774 112.479, 1171.155 100.216, 1162.832 91.416 C 1156.594 84.820, 1151.515 81.652, 1142.036 78.445 C 1126.089 73.050, 1120.738 72.733, 1037.750 72.264 L 961 71.830 961 297.915 M 1222 298 L 1222 524 1296.500 524 L 1371 524 1371 486 L 1371 448 1344.500 448 L 1318 448 1318 380.500 L 1318 313 1344.500 313 L 1371 313 1371 275.500 L 1371 238 1344.500 238 L 1318 238 1318 191.500 L 1318 145 1344.500 145 L 1371 145 1371 108.500 L 1371 72 1296.500 72 L 1222 72 1222 298 M 602 204.144 L 602 261.288 610.231 260.601 C 628.821 259.051, 629.478 256.851, 628.756 198.500 C 628.220 155.154, 627.959 153.228, 622.102 149.287 C 619.237 147.358, 617.396 147, 610.352 147 L 602 147 602 204.144 M 1057 204.144 L 1057 261.288 1065.113 260.611 C 1078.757 259.473, 1081.419 256.815, 1083.041 242.705 C 1084.163 232.947, 1084.197 184.306, 1083.093 168 C 1081.878 150.044, 1079.187 147, 1064.532 147 L 1057 147 1057 204.144 M 343.612 173.750 C 343.311 175.262, 339.865 201.440, 335.955 231.922 L 328.844 287.344 335.950 342.922 C 339.858 373.490, 343.304 399.738, 343.607 401.250 L 344.159 404 359 404 L 373.841 404 374.393 401.250 C 374.696 399.738, 378.142 373.490, 382.050 342.922 L 389.156 287.344 382.045 231.922 C 378.135 201.440, 374.689 175.262, 374.388 173.750 L 373.841 171 359 171 L 344.159 171 343.612 173.750" stroke="none" fill="#8e68e8" fill-rule="evenodd"/></svg>